solid generated_bracket
  facet normal 0 0 1
    outer loop
      vertex -1 -0.7 0
      vertex 1 -0.7 0
      vertex 1 0.7 0
    endloop
  endfacet
  facet normal 0 0 1
    outer loop
      vertex -1 -0.7 0
      vertex 1 0.7 0
      vertex -1 0.7 0
    endloop
  endfacet
  facet normal 0 0 1
    outer loop
      vertex -0.35 -0.35 0.55
      vertex 0.35 -0.35 0.55
      vertex 0.35 0.35 0.55
    endloop
  endfacet
  facet normal 0 0 1
    outer loop
      vertex -0.35 -0.35 0.55
      vertex 0.35 0.35 0.55
      vertex -0.35 0.35 0.55
    endloop
  endfacet
  facet normal 0 -1 0
    outer loop
      vertex -0.35 -0.35 0
      vertex 0.35 -0.35 0
      vertex 0.35 -0.35 0.55
    endloop
  endfacet
  facet normal 0 -1 0
    outer loop
      vertex -0.35 -0.35 0
      vertex 0.35 -0.35 0.55
      vertex -0.35 -0.35 0.55
    endloop
  endfacet
  facet normal 1 0 0
    outer loop
      vertex 0.35 -0.35 0
      vertex 0.35 0.35 0
      vertex 0.35 0.35 0.55
    endloop
  endfacet
  facet normal 1 0 0
    outer loop
      vertex 0.35 -0.35 0
      vertex 0.35 0.35 0.55
      vertex 0.35 -0.35 0.55
    endloop
  endfacet
  facet normal 0 1 0
    outer loop
      vertex 0.35 0.35 0
      vertex -0.35 0.35 0
      vertex -0.35 0.35 0.55
    endloop
  endfacet
  facet normal 0 1 0
    outer loop
      vertex 0.35 0.35 0
      vertex -0.35 0.35 0.55
      vertex 0.35 0.35 0.55
    endloop
  endfacet
  facet normal -1 0 0
    outer loop
      vertex -0.35 0.35 0
      vertex -0.35 -0.35 0
      vertex -0.35 -0.35 0.55
    endloop
  endfacet
  facet normal -1 0 0
    outer loop
      vertex -0.35 0.35 0
      vertex -0.35 -0.35 0.55
      vertex -0.35 0.35 0.55
    endloop
  endfacet
  facet normal 0 0 1
    outer loop
      vertex -0.95 -0.55 0.08
      vertex -0.58 -0.55 0.08
      vertex -0.58 -0.18 0.08
    endloop
  endfacet
  facet normal 0 0 1
    outer loop
      vertex 0.58 0.18 0.08
      vertex 0.95 0.55 0.08
      vertex 0.58 0.55 0.08
    endloop
  endfacet
endsolid generated_bracket
