{
  "asset": {
    "version": "2.0",
    "generator": "CoBrA generated sample"
  },
  "scene": 0,
  "scenes": [
    {
      "nodes": [
        0,
        1
      ]
    }
  ],
  "nodes": [
    {
      "mesh": 0,
      "translation": [
        -0.42,
        0,
        0.05
      ],
      "name": "Blue plate"
    },
    {
      "mesh": 1,
      "translation": [
        0.42,
        0,
        0.32
      ],
      "name": "Amber block"
    }
  ],
  "meshes": [
    {
      "name": "Plate mesh",
      "primitives": [
        {
          "attributes": {
            "POSITION": 0,
            "NORMAL": 1
          },
          "indices": 2,
          "material": 0
        }
      ]
    },
    {
      "name": "Block mesh",
      "primitives": [
        {
          "attributes": {
            "POSITION": 3,
            "NORMAL": 4
          },
          "indices": 5,
          "material": 1
        }
      ]
    }
  ],
  "materials": [
    {
      "name": "matte blue",
      "pbrMetallicRoughness": {
        "baseColorFactor": [
          0.35,
          0.55,
          0.85,
          1
        ],
        "roughnessFactor": 0.65,
        "metallicFactor": 0.05
      }
    },
    {
      "name": "matte amber",
      "pbrMetallicRoughness": {
        "baseColorFactor": [
          0.9,
          0.55,
          0.24,
          1
        ],
        "roughnessFactor": 0.58,
        "metallicFactor": 0.04
      }
    }
  ],
  "buffers": [
    {
      "uri": "tiny-assembly.bin",
      "byteLength": 528
    }
  ],
  "bufferViews": [
    {
      "buffer": 0,
      "byteOffset": 0,
      "byteLength": 96,
      "target": 34962
    },
    {
      "buffer": 0,
      "byteOffset": 96,
      "byteLength": 96,
      "target": 34962
    },
    {
      "buffer": 0,
      "byteOffset": 192,
      "byteLength": 72,
      "target": 34963
    },
    {
      "buffer": 0,
      "byteOffset": 264,
      "byteLength": 96,
      "target": 34962
    },
    {
      "buffer": 0,
      "byteOffset": 360,
      "byteLength": 96,
      "target": 34962
    },
    {
      "buffer": 0,
      "byteOffset": 456,
      "byteLength": 72,
      "target": 34963
    }
  ],
  "accessors": [
    {
      "bufferView": 0,
      "componentType": 5126,
      "count": 8,
      "type": "VEC3",
      "min": [
        -0.625,
        -0.36,
        -0.05
      ],
      "max": [
        0.625,
        0.36,
        0.05
      ]
    },
    {
      "bufferView": 1,
      "componentType": 5126,
      "count": 8,
      "type": "VEC3"
    },
    {
      "bufferView": 2,
      "componentType": 5123,
      "count": 36,
      "type": "SCALAR"
    },
    {
      "bufferView": 3,
      "componentType": 5126,
      "count": 8,
      "type": "VEC3",
      "min": [
        -0.23,
        -0.23,
        -0.29
      ],
      "max": [
        0.23,
        0.23,
        0.29
      ]
    },
    {
      "bufferView": 4,
      "componentType": 5126,
      "count": 8,
      "type": "VEC3"
    },
    {
      "bufferView": 5,
      "componentType": 5123,
      "count": 36,
      "type": "SCALAR"
    }
  ]
}
